<?xml version="1.0" encoding="UTF-8" standalone="no"?>
<svg
   xmlns:dc="http://purl.org/dc/elements/1.1/"
   xmlns:cc="http://creativecommons.org/ns#"
   xmlns:rdf="http://www.w3.org/1999/02/22-rdf-syntax-ns#"
   xmlns:svg="http://www.w3.org/2000/svg"
   xmlns="http://www.w3.org/2000/svg"
   xmlns:sodipodi="http://sodipodi.sourceforge.net/DTD/sodipodi-0.dtd"
   xmlns:inkscape="http://www.inkscape.org/namespaces/inkscape"
   width="16"
   height="16"
   fill="currentColor"
   class="bi bi-fire"
   viewBox="0 0 16 16"
   version="1.1"
   id="svg4"
   sodipodi:docname="fire.svg"
   inkscape:version="1.0.2 (e86c870879, 2021-01-15)">
  <metadata
     id="metadata10">
    <rdf:RDF>
      <cc:Work
         rdf:about="">
        <dc:format>image/svg+xml</dc:format>
        <dc:type
           rdf:resource="http://purl.org/dc/dcmitype/StillImage" />
      </cc:Work>
    </rdf:RDF>
  </metadata>
  <defs
     id="defs8" />
  <sodipodi:namedview
     pagecolor="#ffffff"
     bordercolor="#666666"
     borderopacity="1"
     objecttolerance="10"
     gridtolerance="10"
     guidetolerance="10"
     inkscape:pageopacity="0"
     inkscape:pageshadow="2"
     inkscape:window-width="1366"
     inkscape:window-height="704"
     id="namedview6"
     showgrid="false"
     inkscape:zoom="30.125"
     inkscape:cx="8"
     inkscape:cy="8"
     inkscape:window-x="0"
     inkscape:window-y="0"
     inkscape:window-maximized="1"
     inkscape:current-layer="svg4" />
  <path
     d="M8 16c3.314 0 6-2 6-5.5 0-1.5-.5-4-2.5-6 .25 1.5-1.25 2-1.25 2C11 4 9 .5 6 0c.357 2 .5 4-2 6-1.25 1-2 2.729-2 4.5C2 14 4.686 16 8 16Zm0-1c-1.657 0-3-1-3-2.75 0-.75.25-2 1.25-3C6.125 10 7 10.5 7 10.5c-.375-1.25.5-3.25 2-3.5-.179 1-.25 2 1 3 .625.5 1 1.364 1 2.25C11 14 9.657 15 8 15Z"
     id="path2"
     style="fill:#ffffff" />
</svg>
